<svg width="684" height="160" viewBox="0 0 684 160" fill="none" xmlns="http://www.w3.org/2000/svg">
<path d="M54.8781 160L27.0529 117.92L62.7082 55.7709L69.7562 55.1902L114.699 54.8455L160 54.4009L142.979 97.6422L90.3114 97.7873L54.8781 160Z" fill="#FF6700"/>
<path d="M54.5788 41.9257L27.9218 86.4553L0 49.5651L29.3507 0L146.29 0.0998015L126.72 41.962L54.5788 41.9257Z" fill="#FF6700"/>
<path d="M622.435 124V60.512H638.307V68.832H640.611C641.635 66.6133 643.555 64.5227 646.371 62.56C649.187 60.512 653.454 59.488 659.171 59.488C664.12 59.488 668.43 60.64 672.099 62.944C675.854 65.1627 678.755 68.2773 680.803 72.288C682.851 76.2133 683.875 80.8213 683.875 86.112V124H667.747V87.392C667.747 82.6133 666.552 79.0293 664.163 76.64C661.859 74.2507 658.531 73.056 654.179 73.056C649.23 73.056 645.39 74.72 642.659 78.048C639.928 81.2907 638.563 85.856 638.563 91.744V124H622.435Z" fill="white"/>
<path d="M574.547 125.792C570.024 125.792 565.971 125.024 562.387 123.488C558.803 121.867 555.944 119.563 553.811 116.576C551.763 113.504 550.739 109.792 550.739 105.44C550.739 101.088 551.763 97.4613 553.811 94.56C555.944 91.5733 558.846 89.3547 562.515 87.904C566.27 86.368 570.536 85.6 575.315 85.6H592.723V82.016C592.723 79.0293 591.784 76.5973 589.907 74.72C588.03 72.7573 585.043 71.776 580.947 71.776C576.936 71.776 573.95 72.7147 571.987 74.592C570.024 76.384 568.744 78.7307 568.147 81.632L553.299 76.64C554.323 73.3973 555.944 70.4533 558.163 67.808C560.467 65.0773 563.496 62.9013 567.251 61.28C571.091 59.5733 575.742 58.72 581.203 58.72C589.566 58.72 596.179 60.8107 601.043 64.992C605.907 69.1733 608.339 75.232 608.339 83.168V106.848C608.339 109.408 609.534 110.688 611.923 110.688H617.043V124H606.291C603.134 124 600.531 123.232 598.483 121.696C596.435 120.16 595.411 118.112 595.411 115.552V115.424H592.979C592.638 116.448 591.87 117.813 590.675 119.52C589.48 121.141 587.603 122.592 585.043 123.872C582.483 125.152 578.984 125.792 574.547 125.792ZM577.363 112.736C581.886 112.736 585.555 111.499 588.371 109.024C591.272 106.464 592.723 103.093 592.723 98.912V97.632H576.467C573.48 97.632 571.134 98.272 569.427 99.552C567.72 100.832 566.867 102.624 566.867 104.928C566.867 107.232 567.763 109.109 569.555 110.56C571.347 112.011 573.95 112.736 577.363 112.736Z" fill="white"/>
<path d="M451.985 124V60.512H467.857V67.424H470.161C471.27 65.2907 473.105 63.456 475.665 61.92C478.225 60.2987 481.596 59.488 485.777 59.488C490.3 59.488 493.926 60.384 496.657 62.176C499.388 63.8827 501.478 66.144 502.929 68.96H505.233C506.684 66.2293 508.732 63.968 511.377 62.176C514.022 60.384 517.777 59.488 522.641 59.488C526.566 59.488 530.108 60.3413 533.265 62.048C536.508 63.6693 539.068 66.1867 540.945 69.6C542.908 72.928 543.889 77.152 543.889 82.272V124H527.761V83.424C527.761 79.9253 526.865 77.3227 525.073 75.616C523.281 73.824 520.764 72.928 517.521 72.928C513.852 72.928 510.993 74.1227 508.945 76.512C506.982 78.816 506.001 82.144 506.001 86.496V124H489.873V83.424C489.873 79.9253 488.977 77.3227 487.185 75.616C485.393 73.824 482.876 72.928 479.633 72.928C475.964 72.928 473.105 74.1227 471.057 76.512C469.094 78.816 468.113 82.144 468.113 86.496V124H451.985Z" fill="white"/>
<path d="M413.438 125.792C407.123 125.792 401.534 124.469 396.67 121.824C391.891 119.093 388.137 115.296 385.406 110.432C382.761 105.483 381.438 99.68 381.438 93.024V91.488C381.438 84.832 382.761 79.072 385.406 74.208C388.051 69.2587 391.763 65.4613 396.542 62.816C401.321 60.0853 406.867 58.72 413.182 58.72C419.411 58.72 424.83 60.128 429.438 62.944C434.046 65.6747 437.63 69.5147 440.19 74.464C442.75 79.328 444.03 85.0027 444.03 91.488V96.992H397.822C397.993 101.344 399.614 104.885 402.686 107.616C405.758 110.347 409.513 111.712 413.95 111.712C418.473 111.712 421.801 110.731 423.934 108.768C426.067 106.805 427.689 104.629 428.798 102.24L441.982 109.152C440.787 111.371 439.038 113.803 436.734 116.448C434.515 119.008 431.529 121.227 427.774 123.104C424.019 124.896 419.241 125.792 413.438 125.792ZM397.95 84.96H427.646C427.305 81.2907 425.811 78.3467 423.166 76.128C420.606 73.9093 417.235 72.8 413.054 72.8C408.702 72.8 405.246 73.9093 402.686 76.128C400.126 78.3467 398.547 81.2907 397.95 84.96Z" fill="white"/>
<path d="M342.41 124V60.512H358.282V67.68H360.586C361.525 65.12 363.061 63.2427 365.194 62.048C367.413 60.8533 369.973 60.256 372.874 60.256H380.554V74.592H372.618C368.522 74.592 365.151 75.7013 362.506 77.92C359.861 80.0533 358.538 83.3813 358.538 87.904V124H342.41Z" fill="white"/>
<path d="M300.643 125.792C294.328 125.792 288.654 124.512 283.619 121.952C278.584 119.392 274.616 115.68 271.715 110.816C268.814 105.952 267.363 100.107 267.363 93.28V91.232C267.363 84.4053 268.814 78.56 271.715 73.696C274.616 68.832 278.584 65.12 283.619 62.56C288.654 60 294.328 58.72 300.643 58.72C306.958 58.72 312.632 60 317.667 62.56C322.702 65.12 326.67 68.832 329.571 73.696C332.472 78.56 333.923 84.4053 333.923 91.232V93.28C333.923 100.107 332.472 105.952 329.571 110.816C326.67 115.68 322.702 119.392 317.667 121.952C312.632 124.512 306.958 125.792 300.643 125.792ZM300.643 111.456C305.592 111.456 309.688 109.877 312.931 106.72C316.174 103.477 317.795 98.8693 317.795 92.896V91.616C317.795 85.6427 316.174 81.0773 312.931 77.92C309.774 74.6773 305.678 73.056 300.643 73.056C295.694 73.056 291.598 74.6773 288.355 77.92C285.112 81.0773 283.491 85.6427 283.491 91.616V92.896C283.491 98.8693 285.112 103.477 288.355 106.72C291.598 109.877 295.694 111.456 300.643 111.456Z" fill="white"/>
<path d="M208.448 124V34.4H264.768V49.76H225.344V71.392H261.696V86.752H225.344V124H208.448Z" fill="white"/>
</svg>
